<svg xmlns="http://www.w3.org/2000/svg" viewBox="0 0 320 180"><title>Late at night at the office: John points at one cell of a spreadsheet while Mary ponders</title><g fill="none" stroke="#17263e" stroke-width="2.2" stroke-linecap="round" stroke-linejoin="round"><rect x="18" y="18" width="72" height="56" rx="4" fill="#e5eafb"/><path d="M72 34a12 12 0 1 0 8 20a9 9 0 1 1 -8 -20z" fill="#f7ecce" stroke-width="1.8"/><circle cx="34" cy="32" r="1.4" fill="#17263e" stroke="none"/><circle cx="48" cy="46" r="1.2" fill="#17263e" stroke="none"/><circle cx="30" cy="58" r="1.2" fill="#17263e" stroke="none"/><rect x="108" y="22" width="120" height="84" rx="6" fill="#ffffff"/><rect x="114" y="28" width="108" height="72" rx="2" fill="#fffdf6" stroke-width="1.4"/><line x1="114" y1="42.4" x2="222" y2="42.4" stroke-width="1" stroke="#4a5870"/><line x1="114" y1="56.8" x2="222" y2="56.8" stroke-width="1" stroke="#4a5870"/><line x1="114" y1="71.2" x2="222" y2="71.2" stroke-width="1" stroke="#4a5870"/><line x1="114" y1="85.6" x2="222" y2="85.6" stroke-width="1" stroke="#4a5870"/><line x1="141" y1="28" x2="141" y2="100" stroke-width="1" stroke="#4a5870"/><line x1="168" y1="28" x2="168" y2="100" stroke-width="1" stroke="#4a5870"/><line x1="195" y1="28" x2="195" y2="100" stroke-width="1" stroke="#4a5870"/><rect x="168" y="71" width="27" height="14.4" fill="#f7ecce" stroke-width="2.4" stroke="#b3403a"/><path d="M158 106l-6 18h32l-6 -18" fill="#f7ecce"/><line x1="138" y1="124" x2="198" y2="124"/><path d="M247.4 134.8v-12.6q0 -14.7 12.6 -14.7q12.6 0 12.6 14.7v12.6z" fill="#f9e9e8"/><circle cx="260" cy="96" r="11.6" fill="#f7ecce"/><circle cx="255.8" cy="94.6" r="1.4" fill="#17263e" stroke="none"/><circle cx="264.2" cy="94.6" r="1.4" fill="#17263e" stroke="none"/><circle cx="260" cy="101.4" r="1.7" fill="#ffffff" stroke-width="1.5"/><path d="M72 147v-12q0 -14 12 -14q12 0 12 14v12z" fill="#e5eafb"/><circle cx="84" cy="110" r="11" fill="#f7ecce"/><circle cx="82" cy="108.7" r="1.3" fill="#17263e" stroke="none"/><circle cx="89.9" cy="108.7" r="1.3" fill="#17263e" stroke="none"/><path d="M82.2 114.2q3.7 3.3 7.5 0" stroke-width="1.7"/><path d="M108 124h120v8h-120z" fill="#4a5870" stroke-width="1.6"/><path d="M96 132v36M240 132v36" stroke-width="2"/><text x="268" y="60" font-family="IBM Plex Sans, sans-serif" font-size="22" font-weight="700" text-anchor="middle" fill="#4a5870" stroke="none">?</text></g></svg>
