<svg xmlns="http://www.w3.org/2000/svg" viewBox="0 0 320 180"><title>A classroom of students in party hats crowded behind a birthday cake</title><g fill="none" stroke="#17263e" stroke-width="2.2" stroke-linecap="round" stroke-linejoin="round"><g fill="#e5eafb"><circle cx="40" cy="70" r="14"/><circle cx="84" cy="62" r="14"/><circle cx="128" cy="68" r="14"/><circle cx="192" cy="68" r="14"/><circle cx="236" cy="62" r="14"/><circle cx="280" cy="70" r="14"/><circle cx="62" cy="112" r="14"/><circle cx="258" cy="112" r="14"/></g><g fill="#17263e" stroke="none"><circle cx="36" cy="69" r="1.6"/><circle cx="44" cy="69" r="1.6"/><circle cx="80" cy="61" r="1.6"/><circle cx="88" cy="61" r="1.6"/><circle cx="124" cy="67" r="1.6"/><circle cx="132" cy="67" r="1.6"/><circle cx="188" cy="67" r="1.6"/><circle cx="196" cy="67" r="1.6"/><circle cx="232" cy="61" r="1.6"/><circle cx="240" cy="61" r="1.6"/><circle cx="276" cy="69" r="1.6"/><circle cx="284" cy="69" r="1.6"/><circle cx="58" cy="111" r="1.6"/><circle cx="66" cy="111" r="1.6"/><circle cx="254" cy="111" r="1.6"/><circle cx="262" cy="111" r="1.6"/></g><g stroke-width="1.8"><path d="M36 76 Q40 79 44 76 M80 68 Q84 71 88 68 M124 74 Q128 77 132 74 M188 74 Q192 77 196 74 M232 68 Q236 71 240 68 M276 76 Q280 79 284 76 M58 118 Q62 121 66 118 M254 118 Q258 121 262 118"/></g><path d="M32 58 L40 36 L48 58 Z" fill="#d9a621"/><path d="M76 50 L84 28 L92 50 Z" fill="#b3403a"/><path d="M120 56 L128 34 L136 56 Z" fill="#2b54d4"/><path d="M184 56 L192 34 L200 56 Z" fill="#3f8f5f"/><path d="M228 50 L236 28 L244 50 Z" fill="#d9a621"/><path d="M272 58 L280 36 L288 58 Z" fill="#b3403a"/><path d="M54 100 L62 78 L70 100 Z" fill="#3f8f5f"/><path d="M250 100 L258 78 L266 100 Z" fill="#2b54d4"/><rect x="110" y="122" width="100" height="36" rx="4" fill="#f9e9e8"/><rect x="122" y="100" width="76" height="24" rx="4" fill="#fffdf6"/><path d="M110 136 Q126 130 142 136 T176 136 T210 136" stroke="#b3403a"/><path d="M146 100 V88 M160 100 V86 M174 100 V88"/><g fill="#d9a621" stroke="#d9a621"><path d="M146 84 Q142 78 146 74 Q150 78 146 84 Z"/><path d="M160 82 Q156 76 160 72 Q164 76 160 82 Z"/><path d="M174 84 Q170 78 174 74 Q178 78 174 84 Z"/></g><path d="M100 158 H220" stroke-width="3"/></g></svg>
