<svg xmlns="http://www.w3.org/2000/svg" viewBox="0 0 320 180"><title>A wall clock tumbling off its nail, a crack starting across its face</title><g fill="none" stroke="#17263e" stroke-width="2.2" stroke-linecap="round" stroke-linejoin="round"><circle cx="52" cy="18" r="3" fill="#17263e"/><path d="M52 18l58 28" stroke-width="1.4" stroke="#4a5870"/><g transform="rotate(-14 150 100)"><circle cx="150" cy="100" r="64" fill="#ffffff" stroke-width="2.6"/><circle cx="150" cy="100" r="58" stroke-width="1.2" stroke="#4a5870"/><line x1="150" y1="44" x2="150" y2="54" stroke-width="2.6"/><line x1="178" y1="51.5" x2="175" y2="56.7" stroke-width="1.8"/><line x1="198.5" y1="72" x2="193.3" y2="75" stroke-width="1.8"/><line x1="206" y1="100" x2="196" y2="100" stroke-width="2.6"/><line x1="198.5" y1="128" x2="193.3" y2="125" stroke-width="1.8"/><line x1="178" y1="148.5" x2="175" y2="143.3" stroke-width="1.8"/><line x1="150" y1="156" x2="150" y2="146" stroke-width="2.6"/><line x1="122" y1="148.5" x2="125" y2="143.3" stroke-width="1.8"/><line x1="101.5" y1="128" x2="106.7" y2="125" stroke-width="1.8"/><line x1="94" y1="100" x2="104" y2="100" stroke-width="2.6"/><line x1="101.5" y1="72" x2="106.7" y2="75" stroke-width="1.8"/><line x1="122" y1="51.5" x2="125" y2="56.7" stroke-width="1.8"/><line x1="150" y1="100" x2="150" y2="64" stroke-width="3"/><line x1="150" y1="100" x2="176" y2="112" stroke-width="3.4"/><circle cx="150" cy="100" r="4" fill="#17263e" stroke="none"/><path d="M150 36l6 12l-8 8l10 10" stroke-width="2" stroke="#b3403a"/></g><path d="M226 50l10 -6M232 64l14 -2M226 36l6 -10" stroke-width="2" stroke="#d9a621"/><path d="M70 150l18 6M76 164l16 0" stroke-width="1.8" stroke="#4a5870"/><path d="M226 150l14 -18l12 10l-8 14z" fill="#ffffff" stroke-width="1.8"/></g></svg>
