<svg xmlns="http://www.w3.org/2000/svg" viewBox="0 0 320 180"><title>A concert crowd in front of a stage while a bus full of people pulls up</title><g fill="none" stroke="#17263e" stroke-width="2.2" stroke-linecap="round" stroke-linejoin="round"><rect x="20" y="20" width="150" height="70" rx="4" fill="#fffdf6"/><path d="M40 60 L60 40 L80 60 M100 50 H150" stroke="#d9a621"/><circle cx="30" cy="120" r="9" fill="#f7ecce"/><circle cx="27.0" cy="118.9" r="1.7" fill="#17263e" stroke="none"/><circle cx="33.0" cy="118.9" r="1.7" fill="#17263e" stroke="none"/><path d="M26.85 122.7 Q30 125.4 33.15 122.7" stroke-width="1.8"/><circle cx="52" cy="128" r="9" fill="#e5eafb"/><circle cx="49.0" cy="126.9" r="1.7" fill="#17263e" stroke="none"/><circle cx="55.0" cy="126.9" r="1.7" fill="#17263e" stroke="none"/><path d="M48.85 130.7 Q52 133.4 55.15 130.7" stroke-width="1.8"/><circle cx="74" cy="120" r="9" fill="#e5eafb"/><circle cx="71.0" cy="118.9" r="1.7" fill="#17263e" stroke="none"/><circle cx="77.0" cy="118.9" r="1.7" fill="#17263e" stroke="none"/><path d="M70.85 122.7 Q74 125.4 77.15 122.7" stroke-width="1.8"/><circle cx="96" cy="128" r="9" fill="#f7ecce"/><circle cx="93.0" cy="126.9" r="1.7" fill="#17263e" stroke="none"/><circle cx="99.0" cy="126.9" r="1.7" fill="#17263e" stroke="none"/><path d="M92.85 130.7 Q96 133.4 99.15 130.7" stroke-width="1.8"/><circle cx="118" cy="120" r="9" fill="#e5eafb"/><circle cx="115.0" cy="118.9" r="1.7" fill="#17263e" stroke="none"/><circle cx="121.0" cy="118.9" r="1.7" fill="#17263e" stroke="none"/><path d="M114.85 122.7 Q118 125.4 121.15 122.7" stroke-width="1.8"/><circle cx="140" cy="128" r="9" fill="#e5eafb"/><circle cx="137.0" cy="126.9" r="1.7" fill="#17263e" stroke="none"/><circle cx="143.0" cy="126.9" r="1.7" fill="#17263e" stroke="none"/><path d="M136.85 130.7 Q140 133.4 143.15 130.7" stroke-width="1.8"/><circle cx="162" cy="120" r="9" fill="#f7ecce"/><circle cx="159.0" cy="118.9" r="1.7" fill="#17263e" stroke="none"/><circle cx="165.0" cy="118.9" r="1.7" fill="#17263e" stroke="none"/><path d="M158.85 122.7 Q162 125.4 165.15 122.7" stroke-width="1.8"/><rect x="190" y="90" width="120" height="56" rx="10" fill="#f7ecce" stroke="#d9a621"/><rect x="198" y="100" width="20" height="18" rx="3" fill="white"/><circle cx="208" cy="110" r="5" fill="#f9e9e8" stroke-width="1.4"/><rect x="224" y="100" width="20" height="18" rx="3" fill="white"/><circle cx="234" cy="110" r="5" fill="#f9e9e8" stroke-width="1.4"/><rect x="250" y="100" width="20" height="18" rx="3" fill="white"/><circle cx="260" cy="110" r="5" fill="#f9e9e8" stroke-width="1.4"/><rect x="276" y="100" width="20" height="18" rx="3" fill="white"/><circle cx="286" cy="110" r="5" fill="#f9e9e8" stroke-width="1.4"/><circle cx="215" cy="150" r="10" fill="#4a5870"/><circle cx="285" cy="150" r="10" fill="#4a5870"/><text x="250" y="138" font-family="IBM Plex Sans, sans-serif" font-size="12" font-weight="700" text-anchor="middle" fill="#b3403a" stroke="none">50</text></g></svg>