<svg xmlns="http://www.w3.org/2000/svg" viewBox="0 0 320 180"><title>A friendly ghost holding a die over a betting table with even and odd squares</title><g fill="none" stroke="#17263e" stroke-width="2.2" stroke-linecap="round" stroke-linejoin="round"><path d="M60 150 V70 Q60 30 100 30 Q140 30 140 70 V150 L128 140 L116 150 L104 140 L92 150 L80 140 Z" fill="white"/><circle cx="88" cy="68" r="3" fill="#17263e" stroke="none"/><circle cx="112" cy="68" r="3" fill="#17263e" stroke="none"/><path d="M92 84 Q100 90 108 84"/><rect x="140" y="60" width="34" height="34" rx="6.1" fill="#f7ecce"/><circle cx="147.8" cy="67.8" r="2.7" fill="#17263e" stroke="none"/><circle cx="166.2" cy="67.8" r="2.7" fill="#17263e" stroke="none"/><circle cx="157.0" cy="77.0" r="2.7" fill="#17263e" stroke="none"/><circle cx="147.8" cy="86.2" r="2.7" fill="#17263e" stroke="none"/><circle cx="166.2" cy="86.2" r="2.7" fill="#17263e" stroke="none"/><rect x="180" y="110" width="60" height="44" rx="4" fill="#e5eafb"/><rect x="246" y="110" width="60" height="44" rx="4" fill="#f9e9e8"/><text x="210" y="137" font-family="IBM Plex Sans, sans-serif" font-size="11" font-weight="700" text-anchor="middle" fill="#2b54d4" stroke="none">EVEN</text><text x="276" y="137" font-family="IBM Plex Sans, sans-serif" font-size="11" font-weight="700" text-anchor="middle" fill="#b3403a" stroke="none">ODD</text><circle cx="210" cy="90" r="10" fill="#f7ecce" stroke="#d9a621"/><circle cx="210" cy="90" r="6" stroke="#d9a621" stroke-width="1.2"/><circle cx="276" cy="90" r="10" fill="#f7ecce" stroke="#d9a621"/><circle cx="276" cy="90" r="6" stroke="#d9a621" stroke-width="1.2"/></g></svg>