<svg xmlns="http://www.w3.org/2000/svg" viewBox="0 0 320 180"><title>Three coins already showing heads in a row and a fourth coin spinning in the air</title><g stroke="#17263e" stroke-width="2.2" stroke-linecap="round" stroke-linejoin="round" fill="none"><circle cx="50" cy="120" r="24" fill="#f7ecce"/><circle cx="50" cy="120" r="17" stroke="#d9a621" stroke-width="1.4"/><text x="50" y="126" font-size="16" fill="#17263e" stroke="none" text-anchor="middle" font-family="IBM Plex Sans, sans-serif" font-weight="600">H</text><circle cx="112" cy="120" r="24" fill="#f7ecce"/><circle cx="112" cy="120" r="17" stroke="#d9a621" stroke-width="1.4"/><text x="112" y="126" font-size="16" fill="#17263e" stroke="none" text-anchor="middle" font-family="IBM Plex Sans, sans-serif" font-weight="600">H</text><circle cx="174" cy="120" r="24" fill="#f7ecce"/><circle cx="174" cy="120" r="17" stroke="#d9a621" stroke-width="1.4"/><text x="174" y="126" font-size="16" fill="#17263e" stroke="none" text-anchor="middle" font-family="IBM Plex Sans, sans-serif" font-weight="600">H</text><ellipse cx="248" cy="58" rx="24" ry="8" fill="#f7ecce"/><path d="M232 80 Q240 96 236 108 M264 80 Q256 96 260 108" stroke="#4a5870" stroke-dasharray="3 4"/><path d="M226 168 Q230 146 244 142 Q252 140 256 148 L258 168" fill="#f7ecce"/><path d="M244 142 Q240 132 250 128" /><text x="248" y="34" font-size="18" fill="#b3403a" stroke="none" text-anchor="middle" font-family="IBM Plex Sans, sans-serif" font-weight="600">?</text></g></svg>