<svg xmlns="http://www.w3.org/2000/svg" viewBox="0 0 320 180"><title>An 8 by 8 grid with a staircase path of east and north steps and a puzzled walker counting the corners</title><g fill="none" stroke="#17263e" stroke-width="2.2" stroke-linecap="round" stroke-linejoin="round"><path d="M60 160 V32 M60 160 H188" stroke="#4a5870" stroke-width="1"/><path d="M76 160 V32 M60 144 H188" stroke="#4a5870" stroke-width="1"/><path d="M92 160 V32 M60 128 H188" stroke="#4a5870" stroke-width="1"/><path d="M108 160 V32 M60 112 H188" stroke="#4a5870" stroke-width="1"/><path d="M124 160 V32 M60 96 H188" stroke="#4a5870" stroke-width="1"/><path d="M140 160 V32 M60 80 H188" stroke="#4a5870" stroke-width="1"/><path d="M156 160 V32 M60 64 H188" stroke="#4a5870" stroke-width="1"/><path d="M172 160 V32 M60 48 H188" stroke="#4a5870" stroke-width="1"/><path d="M188 160 V32 M60 32 H188" stroke="#4a5870" stroke-width="1"/><polyline points="60,160 108,160 108,128 156,128 156,96 172,96 172,48 188,48 188,32" stroke="#2b54d4" stroke-width="3"/><circle cx="60" cy="160" r="5" fill="#d9a621"/><circle cx="188" cy="32" r="5" fill="#3f8f5f"/><circle cx="250" cy="80" r="18" fill="#f7ecce"/><circle cx="243.7" cy="78.2" r="1.6" fill="#17263e"/><circle cx="256.3" cy="78.2" r="1.6" fill="#17263e"/><path d="M243.7 85.4 Q250 90.8 256.3 85.4"/><path d="M232 150 Q236 104 250 100 Q264 104 268 150 Z" fill="#e6f2ea"/><path d="M238 60 Q250 40 262 60" stroke="#b3403a"/><text x="292" y="60" font-family="IBM Plex Sans, sans-serif" font-size="22" font-weight="700" fill="#d9a621" text-anchor="middle" stroke="none">?</text></g></svg>