<svg xmlns="http://www.w3.org/2000/svg" viewBox="0 0 320 180"><title>A market maker behind a booth holds up bid and offer signs while the exchange drops a small coin into her tip jar</title><g fill="none" stroke="#17263e" stroke-width="2.2" stroke-linecap="round" stroke-linejoin="round"><path d="M40 40 L110 14 L180 40 Z" fill="#e5eafb"/><rect x="50" y="40" width="120" height="70" fill="#fffdf6"/><path d="M70 40 V110 M150 40 V110"/><rect x="30" y="110" width="160" height="14" fill="#e5eafb"/><circle cx="110" cy="72" r="16" fill="#f7ecce"/><circle cx="104" cy="70" r="2.2" fill="#17263e" stroke="none"/><circle cx="116" cy="70" r="2.2" fill="#17263e" stroke="none"/><path d="M104 77 Q110 82 116 77"/><rect x="60" y="56" width="30" height="20" rx="3" fill="#e6f2ea"/><rect x="130" y="56" width="30" height="20" rx="3" fill="#f9e9e8"/><text x="75" y="71" font-size="11" fill="#3f8f5f" stroke="none" text-anchor="middle" font-family="IBM Plex Sans, sans-serif">bid</text><text x="145" y="71" font-size="11" fill="#b3403a" stroke="none" text-anchor="middle" font-family="IBM Plex Sans, sans-serif">ask</text><path d="M226 126 L232 160 H268 L274 126 Z" fill="#f7ecce"/><path d="M224 126 H276"/><circle cx="250" cy="96" r="11" fill="#d9a621"/><circle cx="250" cy="96" r="7.7" stroke="#fffdf6" stroke-width="1.5"/><path d="M250 70 V80 M244 76 L250 82 L256 76" stroke="#4a5870"/><path d="M220 40 Q250 20 280 40" stroke="#4a5870" stroke-dasharray="3 5"/><path d="M60 150 H180" stroke="#4a5870"/><path d="M96 144 L90 150 L96 156 M144 144 L150 150 L144 156"/></g></svg>