<svg xmlns="http://www.w3.org/2000/svg" viewBox="0 0 320 180"><title>Tiny ants scattered along a taut string between two posts, each marching left or right</title><g stroke="#17263e" stroke-width="2.2" stroke-linecap="round" stroke-linejoin="round">
<rect x="18" y="60" width="12" height="96" rx="2" fill="#f7ecce"/><rect x="290" y="60" width="12" height="96" rx="2" fill="#f7ecce"/>
<line x1="30" y1="100" x2="290" y2="100" stroke="#4a5870" stroke-width="2.5"/>
<g transform="translate(50 96) scale(1.6) translate(-50 -93)"><g><ellipse cx="50" cy="93" rx="4" ry="3" fill="#17263e" stroke="none"/><ellipse cx="56" cy="93" rx="3" ry="2.5" fill="#17263e" stroke="none"/><circle cx="61" cy="92" r="2.6" fill="#17263e" stroke="none"/><path d="M48 95 L45 100 M52 95 L55 100 M56 95 L56 100" stroke-width="1.2"/><path d="M62 90 L65 85" stroke-width="1.2"/></g></g><path d="M52 72 L66 72" stroke="#3f8f5f" stroke-width="1.8"/><path d="M62 68 L66 72 L62 76" fill="none" stroke="#3f8f5f" stroke-width="1.8"/><g transform="translate(96 96) scale(1.6) translate(-96 -93)"><g><ellipse cx="96" cy="93" rx="4" ry="3" fill="#17263e" stroke="none"/><ellipse cx="90" cy="93" rx="3" ry="2.5" fill="#17263e" stroke="none"/><circle cx="85" cy="92" r="2.6" fill="#17263e" stroke="none"/><path d="M94 95 L91 100 M98 95 L101 100 M90 95 L90 100" stroke-width="1.2"/><path d="M84 90 L81 85" stroke-width="1.2"/></g></g><path d="M94 72 L80 72" stroke="#b3403a" stroke-width="1.8"/><path d="M84 68 L80 72 L84 76" fill="none" stroke="#b3403a" stroke-width="1.8"/><g transform="translate(130 96) scale(1.6) translate(-130 -93)"><g><ellipse cx="130" cy="93" rx="4" ry="3" fill="#17263e" stroke="none"/><ellipse cx="136" cy="93" rx="3" ry="2.5" fill="#17263e" stroke="none"/><circle cx="141" cy="92" r="2.6" fill="#17263e" stroke="none"/><path d="M128 95 L125 100 M132 95 L135 100 M136 95 L136 100" stroke-width="1.2"/><path d="M142 90 L145 85" stroke-width="1.2"/></g></g><path d="M132 72 L146 72" stroke="#3f8f5f" stroke-width="1.8"/><path d="M142 68 L146 72 L142 76" fill="none" stroke="#3f8f5f" stroke-width="1.8"/><g transform="translate(170 96) scale(1.6) translate(-170 -93)"><g><ellipse cx="170" cy="93" rx="4" ry="3" fill="#17263e" stroke="none"/><ellipse cx="164" cy="93" rx="3" ry="2.5" fill="#17263e" stroke="none"/><circle cx="159" cy="92" r="2.6" fill="#17263e" stroke="none"/><path d="M168 95 L165 100 M172 95 L175 100 M164 95 L164 100" stroke-width="1.2"/><path d="M158 90 L155 85" stroke-width="1.2"/></g></g><path d="M168 72 L154 72" stroke="#b3403a" stroke-width="1.8"/><path d="M158 68 L154 72 L158 76" fill="none" stroke="#b3403a" stroke-width="1.8"/><g transform="translate(204 96) scale(1.6) translate(-204 -93)"><g><ellipse cx="204" cy="93" rx="4" ry="3" fill="#17263e" stroke="none"/><ellipse cx="210" cy="93" rx="3" ry="2.5" fill="#17263e" stroke="none"/><circle cx="215" cy="92" r="2.6" fill="#17263e" stroke="none"/><path d="M202 95 L199 100 M206 95 L209 100 M210 95 L210 100" stroke-width="1.2"/><path d="M216 90 L219 85" stroke-width="1.2"/></g></g><path d="M206 72 L220 72" stroke="#3f8f5f" stroke-width="1.8"/><path d="M216 68 L220 72 L216 76" fill="none" stroke="#3f8f5f" stroke-width="1.8"/><g transform="translate(236 96) scale(1.6) translate(-236 -93)"><g><ellipse cx="236" cy="93" rx="4" ry="3" fill="#17263e" stroke="none"/><ellipse cx="230" cy="93" rx="3" ry="2.5" fill="#17263e" stroke="none"/><circle cx="225" cy="92" r="2.6" fill="#17263e" stroke="none"/><path d="M234 95 L231 100 M238 95 L241 100 M230 95 L230 100" stroke-width="1.2"/><path d="M224 90 L221 85" stroke-width="1.2"/></g></g><path d="M234 72 L220 72" stroke="#b3403a" stroke-width="1.8"/><path d="M224 68 L220 72 L224 76" fill="none" stroke="#b3403a" stroke-width="1.8"/><g transform="translate(264 96) scale(1.6) translate(-264 -93)"><g><ellipse cx="264" cy="93" rx="4" ry="3" fill="#17263e" stroke="none"/><ellipse cx="270" cy="93" rx="3" ry="2.5" fill="#17263e" stroke="none"/><circle cx="275" cy="92" r="2.6" fill="#17263e" stroke="none"/><path d="M262 95 L259 100 M266 95 L269 100 M270 95 L270 100" stroke-width="1.2"/><path d="M276 90 L279 85" stroke-width="1.2"/></g></g><path d="M266 72 L280 72" stroke="#3f8f5f" stroke-width="1.8"/><path d="M276 68 L280 72 L276 76" fill="none" stroke="#3f8f5f" stroke-width="1.8"/>
<path d="M30 126 L290 126" stroke="#4a5870" stroke-dasharray="3 5"/><text x="160" y="146" font-size="12" fill="#4a5870" stroke="none" text-anchor="middle" font-family="IBM Plex Sans, sans-serif">1 ft</text>
</g></svg>
