<svg xmlns="http://www.w3.org/2000/svg" viewBox="0 0 320 180"><title>Cards turned over two at a time: red pairs go to your pile, black pairs to the dealer, mixed pairs are discarded</title><g fill="none" stroke="#17263e" stroke-width="2.2" stroke-linecap="round" stroke-linejoin="round"><rect x="16" y="110" width="34" height="46" rx="4" fill="#e5eafb"/><rect x="20" y="106" width="34" height="46" rx="4" fill="#e5eafb"/><rect x="24" y="102" width="34" height="46" rx="4" fill="#ffffff"/><path d="M30 108l22 34M52 108l-22 34" stroke-width="1" stroke="#2b54d4"/><g transform="rotate(-6 96 70)"><rect x="82" y="50" width="28" height="40" rx="4" fill="#ffffff" stroke-width="1.8"/><path d="M96 77l-8 -8a4.5 4.5 0 0 1 8 -5a4.5 4.5 0 0 1 8 5z" fill="#b3403a" stroke-width="0"/></g><g transform="rotate(6 120 70)"><rect x="106" y="50" width="28" height="40" rx="4" fill="#ffffff" stroke-width="1.8"/><path d="M120 77l-8 -8a4.5 4.5 0 0 1 8 -5a4.5 4.5 0 0 1 8 5z" fill="#b3403a" stroke-width="0"/></g><g transform="rotate(-4 172 64)"><rect x="158" y="44" width="28" height="40" rx="4" fill="#ffffff" stroke-width="1.8"/><path d="M172 55l-8 9a4.5 4.5 0 0 0 7 5l-2 5h6l-2 -5a4.5 4.5 0 0 0 7 -5z" fill="#17263e" stroke-width="0"/></g><g transform="rotate(8 196 64)"><rect x="182" y="44" width="28" height="40" rx="4" fill="#ffffff" stroke-width="1.8"/><path d="M196 55l-8 9a4.5 4.5 0 0 0 7 5l-2 5h6l-2 -5a4.5 4.5 0 0 0 7 -5z" fill="#17263e" stroke-width="0"/></g><g transform="rotate(-8 248 74)"><rect x="234" y="54" width="28" height="40" rx="4" fill="#ffffff" stroke-width="1.8"/><path d="M248 81l-8 -8a4.5 4.5 0 0 1 8 -5a4.5 4.5 0 0 1 8 5z" fill="#b3403a" stroke-width="0"/></g><g transform="rotate(4 272 74)"><rect x="258" y="54" width="28" height="40" rx="4" fill="#ffffff" stroke-width="1.8"/><path d="M272 65l-8 9a4.5 4.5 0 0 0 7 5l-2 5h6l-2 -5a4.5 4.5 0 0 0 7 -5z" fill="#17263e" stroke-width="0"/></g><path d="M108 100v20M184 94v26M260 104v16" stroke-width="1.6" stroke="#4a5870" stroke-dasharray="3 3"/><rect x="92" y="128" width="32" height="22" rx="3" fill="#f9e9e8"/><rect x="168" y="128" width="32" height="22" rx="3" fill="#4a5870"/><path d="M252 132l16 14M268 132l-16 14" stroke-width="2.2" stroke="#4a5870"/><text x="108" y="168" font-family="IBM Plex Sans, sans-serif" font-size="11" font-weight="600" text-anchor="middle" fill="#b3403a" stroke="none">you</text><text x="184" y="168" font-family="IBM Plex Sans, sans-serif" font-size="11" font-weight="600" text-anchor="middle" fill="#17263e" stroke="none">dealer</text></g></svg>
