<svg xmlns="http://www.w3.org/2000/svg" viewBox="0 0 320 180"><title>A player holding up two cards drawn from a fanned deck of numbered pairs, a discard tray beside</title><g fill="none" stroke="#17263e" stroke-width="2.2" stroke-linecap="round" stroke-linejoin="round"><g transform="rotate(-12 39.0 94.0)"><rect x="22" y="70" width="34" height="48" rx="5" fill="#fffdf6"/><circle cx="39" cy="94" r="5" fill="#f7ecce"/></g><g transform="rotate(-7 51.0 94.0)"><rect x="34" y="70" width="34" height="48" rx="5" fill="#fffdf6"/><circle cx="51" cy="94" r="5" fill="#e5eafb"/></g><g transform="rotate(-2 63.0 94.0)"><rect x="46" y="70" width="34" height="48" rx="5" fill="#fffdf6"/><circle cx="63" cy="94" r="5" fill="#f9e9e8"/></g><g transform="rotate(3 75.0 94.0)"><rect x="58" y="70" width="34" height="48" rx="5" fill="#fffdf6"/><circle cx="75" cy="94" r="5" fill="#e6f2ea"/></g><g transform="rotate(8 87.0 94.0)"><rect x="70" y="70" width="34" height="48" rx="5" fill="#fffdf6"/><circle cx="87" cy="94" r="5" fill="#f7ecce"/></g><g transform="rotate(13 99.0 94.0)"><rect x="82" y="70" width="34" height="48" rx="5" fill="#fffdf6"/><circle cx="99" cy="94" r="5" fill="#e5eafb"/></g><g transform="rotate(-10 167.0 54.0)"><rect x="150" y="30" width="34" height="48" rx="5" fill="#fffdf6"/><circle cx="167" cy="54" r="7" fill="#e5eafb"/></g><g transform="rotate(10 213.0 54.0)"><rect x="196" y="30" width="34" height="48" rx="5" fill="#fffdf6"/><circle cx="213" cy="54" r="7" fill="#f9e9e8"/></g><circle cx="192" cy="120" r="16" fill="#f7ecce"/><circle cx="186.4" cy="118.4" r="1.6" fill="#17263e"/><circle cx="197.6" cy="118.4" r="1.6" fill="#17263e"/><path d="M186.4 124.8 Q192 129.6 197.6 124.8"/><path d="M178 132 Q164 110 168 84 M206 132 Q220 110 214 84"/><path d="M248 150 H300 M252 150 V136 H296 V150" fill="#f7ecce"/><text x="274" y="128" font-family="IBM Plex Sans, sans-serif" font-size="22" font-weight="700" fill="#d9a621" text-anchor="middle" stroke="none">?</text></g></svg>